<svg width="47" height="45" viewBox="0 0 47 45" fill="none" xmlns="http://www.w3.org/2000/svg">
<path fill-rule="evenodd" clip-rule="evenodd" d="M23.5 1.875C17.5514 1.875 12.7291 6.49206 12.7291 12.1875C12.7291 17.8829 17.5514 22.5 23.5 22.5C29.4486 22.5 34.2708 17.8829 34.2708 12.1875C34.2708 6.49206 29.4486 1.875 23.5 1.875ZM16.6458 12.1875C16.6458 8.56313 19.7145 5.625 23.5 5.625C27.2854 5.625 30.3541 8.56313 30.3541 12.1875C30.3541 15.8119 27.2854 18.75 23.5 18.75C19.7145 18.75 16.6458 15.8119 16.6458 12.1875Z" fill="white"/>
<path d="M15.6666 26.25C9.17728 26.25 3.91663 31.2868 3.91663 37.5V41.25C3.91663 42.2856 4.79341 43.125 5.87496 43.125C6.95651 43.125 7.83329 42.2856 7.83329 41.25V37.5C7.83329 33.3579 11.3404 30 15.6666 30H31.3333C35.6594 30 39.1666 33.3579 39.1666 37.5V41.25C39.1666 42.2856 40.0434 43.125 41.125 43.125C42.2065 43.125 43.0833 42.2856 43.0833 41.25V37.5C43.0833 31.2868 37.8226 26.25 31.3333 26.25H15.6666Z" fill="white"/>
</svg>
