<svg width="47" height="45" viewBox="0 0 47 45" fill="none" xmlns="http://www.w3.org/2000/svg">
<path fill-rule="evenodd" clip-rule="evenodd" d="M33.2916 3.75C33.2916 2.71447 32.4149 1.875 31.3333 1.875C30.2517 1.875 29.375 2.71447 29.375 3.75V5.625H17.625V3.75C17.625 2.71447 16.7482 1.875 15.6666 1.875C14.5851 1.875 13.7083 2.71447 13.7083 3.75V5.625H9.79163C6.54696 5.625 3.91663 8.14341 3.91663 11.25V37.5C3.91663 40.6067 6.54696 43.125 9.79163 43.125H37.2083C40.4531 43.125 43.0833 40.6067 43.0833 37.5V11.25C43.0833 8.14341 40.4531 5.625 37.2083 5.625H33.2916V3.75ZM39.1666 16.875V11.25C39.1666 10.2145 38.2899 9.375 37.2083 9.375H33.2916V11.25C33.2916 12.2855 32.4149 13.125 31.3333 13.125C30.2517 13.125 29.375 12.2855 29.375 11.25V9.375H17.625V11.25C17.625 12.2855 16.7482 13.125 15.6666 13.125C14.5851 13.125 13.7083 12.2855 13.7083 11.25V9.375H9.79163C8.71008 9.375 7.83329 10.2145 7.83329 11.25V16.875H39.1666ZM7.83329 20.625H39.1666V37.5C39.1666 38.5356 38.2899 39.375 37.2083 39.375H9.79163C8.71008 39.375 7.83329 38.5356 7.83329 37.5V20.625Z" fill="white"/>
</svg>
