<svg width="47" height="45" viewBox="0 0 47 45" fill="none" xmlns="http://www.w3.org/2000/svg">
<path fill-rule="evenodd" clip-rule="evenodd" d="M24.7022 2.26997C23.995 1.74334 23.0049 1.74334 22.2977 2.26997L4.67266 15.395C4.19563 15.7502 3.91663 16.2964 3.91663 16.875V37.5C3.91663 39.5711 5.67018 41.25 7.83329 41.25H39.1666C41.3298 41.25 43.0833 39.5711 43.0833 37.5V16.875C43.0833 16.2964 42.8042 15.7502 42.3272 15.395L24.7022 2.26997ZM31.3333 37.5H39.1666V17.792L23.5 6.12536L7.83329 17.792V37.5H15.6666V22.5C15.6666 21.4644 16.5434 20.625 17.625 20.625H29.375C30.4565 20.625 31.3333 21.4644 31.3333 22.5V37.5ZM19.5833 37.5V24.375H27.4166V37.5H19.5833Z" fill="white"/>
</svg>
