<?xml version="1.0" standalone="no"?>
<!DOCTYPE svg PUBLIC "-//W3C//DTD SVG 20010904//EN"
 "http://www.w3.org/TR/2001/REC-SVG-20010904/DTD/svg10.dtd">
<svg version="1.0" xmlns="http://www.w3.org/2000/svg"
 width="1024.000000pt" height="1024.000000pt" viewBox="0 0 1024.000000 1024.000000"
 preserveAspectRatio="xMidYMid meet">

<g transform="translate(0.000000,1024.000000) scale(0.100000,-0.100000)"
fill="#000000" stroke="none">
<path d="M4890 8214 c-487 -58 -990 -256 -1372 -542 -332 -248 -647 -622 -832
-989 -97 -194 -209 -525 -223 -660 -6 -52 -5 -56 33 -94 25 -25 47 -39 64 -39
32 1 100 32 122 56 9 10 30 75 47 144 77 321 191 562 400 845 110 148 335 383
466 486 482 381 1108 589 1700 566 363 -14 656 -90 1000 -257 338 -164 620
-380 828 -635 98 -119 275 -382 325 -481 51 -101 130 -147 187 -110 41 27 86
96 79 120 -13 44 -130 247 -221 383 -320 480 -749 819 -1325 1047 -187 75
-479 144 -697 166 -140 14 -441 11 -581 -6z"/>
<path d="M4650 7142 c-140 -13 -273 -110 -355 -263 l-40 -74 3 -1478 c2 -1454
3 -1478 22 -1531 28 -74 69 -127 126 -163 66 -43 130 -57 219 -50 126 9 218
76 287 209 l33 63 3 503 c1 276 4 502 5 502 1 1 155 5 342 10 377 10 408 14
580 85 227 94 401 237 522 429 128 202 167 346 167 621 1 166 -1 188 -27 285
-34 128 -101 266 -177 369 -69 92 -203 223 -285 278 -138 93 -321 167 -475
191 -76 13 -840 23 -950 14z m985 -281 c255 -70 450 -223 554 -434 74 -149 95
-245 95 -437 0 -222 -37 -348 -146 -507 -54 -78 -153 -178 -167 -168 -5 3 -13
0 -17 -6 -5 -8 -2 -10 7 -5 8 4 5 0 -6 -9 -58 -48 -316 -156 -369 -154 -11 0
-16 2 -11 4 6 1 30 9 55 16 25 7 55 19 67 27 12 8 28 10 35 6 9 -5 9 -3 -1 10
-13 16 -12 17 10 11 17 -4 48 4 94 25 73 33 92 49 72 62 -18 12 -27 9 -27 -7
0 -8 -9 -15 -20 -15 -12 0 -20 7 -20 16 0 13 -7 15 -37 9 -38 -7 -56 -22 -47
-37 3 -4 1 -8 -5 -8 -5 0 -12 6 -14 13 -3 6 -6 2 -6 -9 -1 -24 -19 -34 -62
-34 -16 0 -29 -4 -29 -10 0 -5 -9 -10 -20 -10 -11 0 -20 5 -20 10 0 6 -18 10
-40 10 -22 0 -40 5 -40 10 0 6 -9 10 -20 10 -11 0 -20 7 -20 15 0 15 -22 20
-65 15 -32 -3 -45 -20 -45 -56 0 -34 -1 -34 -45 -34 -32 0 -45 -4 -45 -14 0
-18 -59 -29 -105 -20 -33 6 -35 9 -35 45 0 32 -3 39 -20 39 -13 0 -20 7 -20
20 0 11 -5 20 -12 20 -6 0 -8 3 -4 8 4 4 114 10 244 13 l237 6 95 38 c52 21
109 38 125 38 17 0 24 2 17 4 -13 5 -7 23 9 23 5 0 18 -9 29 -20 11 -11 20
-16 20 -11 0 6 -9 16 -21 24 -20 14 -19 15 14 36 65 40 160 152 205 241 52
105 64 162 64 315 0 147 -15 216 -78 344 -66 134 -146 212 -285 280 -57 28
-149 62 -204 77 -100 26 -100 26 -390 21 -293 -5 -398 -15 -440 -43 -17 -11
-24 -28 -31 -77 -4 -34 -8 -460 -9 -947 -1 -752 -4 -891 -16 -928 -8 -24 -19
-43 -25 -44 -5 0 -19 -4 -32 -9 -36 -14 -60 -11 -65 9 -3 9 -6 -8 -7 -38 l-3
-55 -6 60 c-4 33 -7 515 -6 1070 0 1003 0 1010 21 1055 27 59 69 107 97 113
12 3 222 4 467 3 425 -2 449 -3 525 -25z m-151 -416 c86 -23 192 -82 253 -142
171 -167 168 -458 -6 -632 -122 -121 -195 -141 -527 -141 l-241 0 -7 77 c-3
42 -6 251 -6 465 l0 388 238 0 c181 0 252 -4 296 -15z m59 -1307 c-6 -11 -55
-10 -72 1 -8 5 3 8 32 7 25 0 43 -4 40 -8z m-310 -5 c-18 -2 -48 -2 -65 0 -18
2 -4 4 32 4 36 0 50 -2 33 -4z"/>
<path d="M5861 5431 c-12 -8 -12 -11 1 -25 14 -14 16 -13 14 9 0 14 -1 25 -1
25 0 0 -6 -4 -14 -9z"/>
<path d="M5515 6093 c-16 -8 -50 -28 -75 -43 -25 -15 -76 -44 -115 -65 -38
-20 -75 -43 -81 -51 -6 -8 -19 -14 -28 -14 -13 0 -16 -11 -16 -64 0 -77 -1
-76 120 -76 80 0 89 2 95 20 3 11 11 20 17 20 5 0 7 -7 4 -16 -5 -12 -1 -14
17 -9 33 10 102 61 100 74 -2 6 2 10 9 9 7 -2 21 13 31 32 23 43 17 131 -11
169 -24 32 -31 33 -67 14z"/>
<path d="M3413 6940 c-127 -42 -199 -155 -191 -300 5 -84 27 -137 84 -200 51
-56 107 -80 185 -80 143 0 260 99 295 249 50 215 -158 401 -373 331z m157
-156 c67 -40 79 -122 29 -198 -35 -53 -55 -66 -98 -66 -48 0 -78 16 -105 57
-43 63 -29 143 33 196 38 32 97 36 141 11z"/>
<path d="M7340 6703 l-25 -26 33 17 c18 9 30 21 27 26 -8 13 -6 14 -35 -17z"/>
<path d="M7100 6580 c-9 -6 -10 -10 -3 -10 6 0 15 5 18 10 8 12 4 12 -15 0z"/>
<path d="M7166 6129 c-33 -26 -56 -69 -56 -105 0 -35 70 -104 106 -104 38 0
82 27 99 60 54 104 -61 219 -149 149z"/>
<path d="M7540 6139 c-121 -25 -94 -218 32 -219 64 0 129 76 114 134 -9 38
-53 83 -83 88 -16 2 -44 1 -63 -3z"/>
<path d="M3000 6098 c-14 -5 -37 -21 -52 -35 -40 -38 -37 -74 11 -126 l40 -42
346 -3 c338 -3 347 -3 381 18 63 40 79 86 48 139 -33 56 -31 55 -404 57 -191
1 -356 -3 -370 -8z"/>
<path d="M7174 5701 c-43 -26 -74 -73 -74 -110 0 -39 58 -106 98 -114 39 -7
88 17 112 55 61 97 -44 227 -136 169z"/>
<path d="M7534 5701 c-31 -13 -74 -69 -74 -96 0 -70 52 -125 117 -125 38 0 51
6 78 33 41 41 51 77 35 117 -23 56 -104 93 -156 71z"/>
<path d="M2963 5621 c-26 -12 -48 -32 -58 -51 -15 -29 -15 -34 2 -67 36 -73
27 -72 428 -78 353 -7 361 -6 393 14 18 12 40 37 49 56 16 33 16 37 0 70 -9
19 -31 44 -49 55 -31 19 -51 20 -378 20 -317 0 -348 -2 -387 -19z"/>
<path d="M6647 5288 c-80 -133 -187 -260 -313 -370 -137 -120 -353 -219 -594
-273 -53 -12 -144 -18 -310 -22 l-235 -5 0 -382 c0 -342 -2 -387 -18 -441 -50
-160 -169 -321 -285 -383 -304 -162 -658 -56 -801 241 -63 129 -72 171 -78
362 -3 94 -8 164 -10 158 -3 -7 -13 -13 -22 -13 -10 0 -28 -11 -41 -25 -13
-14 -30 -25 -39 -25 -8 0 -92 -38 -187 -86 -95 -47 -216 -102 -269 -123 -113
-46 -200 -96 -212 -124 -8 -18 -17 -11 -75 64 -68 89 -126 180 -230 368 -35
63 -75 123 -90 134 l-27 20 -48 -24 c-48 -24 -88 -71 -99 -116 -17 -68 236
-460 442 -685 354 -386 879 -692 1428 -833 336 -86 715 -104 1071 -50 120 18
372 82 510 129 255 86 428 174 686 347 206 138 440 356 590 549 200 257 372
579 468 873 47 146 101 401 101 480 0 51 -3 60 -38 97 -54 56 -89 55 -148 -3
l-44 -44 -102 -6 c-172 -11 -223 -27 -443 -138 -110 -56 -222 -116 -250 -133
-56 -35 -89 -51 -155 -73 -54 -18 -71 -32 -123 -103 -53 -72 -128 -145 -224
-218 -96 -73 -193 -174 -193 -200 0 -13 9 -22 28 -27 26 -6 80 -43 287 -195
50 -36 124 -90 166 -120 116 -82 146 -141 96 -188 -53 -50 -129 -22 -257 94
-36 32 -121 107 -190 165 -69 59 -146 129 -171 156 -25 28 -52 54 -61 59 -8 5
-34 34 -56 64 -60 79 -56 128 10 121 18 -1 30 4 37 16 12 23 96 105 171 167
30 25 75 70 100 100 25 30 51 55 58 55 6 1 12 6 12 13 0 7 62 73 139 148 132
129 187 200 156 200 -8 0 -17 -9 -20 -20 -11 -34 -25 -22 -25 20 0 22 -4 40
-10 40 -5 0 -10 9 -10 20 0 11 -4 20 -10 20 -5 0 -10 9 -10 20 0 11 4 20 9 20
5 0 12 17 16 37 5 28 3 40 -9 49 -22 16 -20 66 5 98 11 14 19 33 17 42 -2 9
-33 -33 -71 -98z m418 -745 c206 -75 247 -94 269 -125 23 -33 20 -75 -6 -92
-60 -38 -86 -32 -327 78 -167 76 -195 97 -187 140 9 46 35 79 54 71 9 -3 98
-36 197 -72z m-59 -342 c60 -36 68 -108 18 -158 -42 -41 -107 -18 -134 48 -16
38 1 81 44 109 38 24 34 24 72 1z m-1452 -71 c35 -31 146 -235 146 -269 0 -13
-14 -24 -40 -35 -77 -31 -89 -23 -144 98 -43 94 -68 174 -59 190 14 24 37 46
49 46 7 0 29 -14 48 -30z m520 -51 c-33 -36 -143 -113 -150 -106 -3 2 17 18
43 35 26 17 65 49 87 72 21 22 41 38 44 35 3 -3 -8 -19 -24 -36z m-180 -134
c-10 -8 -23 -15 -28 -15 -6 0 -1 7 10 15 10 8 23 15 28 15 6 0 1 -7 -10 -15z
m-434 -169 c0 -3 -4 -8 -10 -11 -5 -3 -10 -1 -10 4 0 6 5 11 10 11 6 0 10 -2
10 -4z m378 -143 c163 -283 192 -365 142 -405 -43 -35 -99 -13 -147 57 -30 45
-173 335 -173 353 0 6 6 12 13 12 6 0 35 11 62 24 28 14 53 25 57 25 4 1 25
-29 46 -66z m457 35 c60 -27 74 -120 26 -169 -46 -46 -103 -33 -136 31 -24 46
-19 78 19 116 37 37 51 40 91 22z m-2891 -77 c-3 -3 -15 6 -27 18 l-22 24 27
-19 c14 -10 24 -21 22 -23z"/>
<path d="M7210 5269 c-14 -5 -33 -20 -42 -32 -23 -29 -33 -99 -19 -126 24 -43
114 -66 162 -41 24 13 49 61 49 95 0 42 -28 85 -65 101 -39 16 -50 16 -85 3z"/>
<path d="M3075 5161 c-95 -6 -115 -14 -154 -55 -22 -24 -23 -29 -12 -65 6 -22
25 -51 42 -65 l31 -26 344 0 c364 0 365 0 417 48 31 29 37 83 12 118 -34 49
-64 54 -337 52 -139 -1 -293 -4 -343 -7z"/>
<path d="M3920 4716 c-65 -23 -240 -102 -240 -108 0 -2 23 -4 50 -5 28 0 50 3
50 8 0 5 5 9 10 9 6 0 10 -9 10 -20 0 -22 15 -27 24 -7 5 10 7 10 12 0 10 -21
44 -16 44 7 0 18 7 20 54 20 49 0 54 2 64 28 12 33 11 84 -3 88 -5 2 -39 -7
-75 -20z"/>
<path d="M4000 4485 l0 -45 -107 -55 c-98 -50 -104 -67 -8 -24 39 18 40 18 57
-1 9 -11 25 -20 37 -20 16 0 21 -8 24 -42 2 -24 4 19 5 95 1 75 0 137 -3 137
-3 0 -5 -20 -5 -45z"/>
<path d="M3693 4295 c-18 -8 -33 -16 -33 -19 0 -7 63 15 75 25 14 13 -5 10
-42 -6z"/>
<path d="M3525 4236 c-76 -27 -189 -80 -130 -61 60 20 239 86 243 90 12 12
-29 1 -113 -29z"/>
</g>
</svg>
